<?xml version="1.0" standalone="no"?><!DOCTYPE svg PUBLIC "-//W3C//DTD SVG 1.1//EN" "http://www.w3.org/Graphics/SVG/1.1/DTD/svg11.dtd"><svg t="1723675289540" class="icon" viewBox="0 0 1024 1024" version="1.1" xmlns="http://www.w3.org/2000/svg" p-id="1469" width="32" height="32" xmlns:xlink="http://www.w3.org/1999/xlink"><path d="M850.487246 321.424164l28.391872-167.047225c9.006038-52.995831-15.673195-66.236051-54.845429-29.424206l-105.376026 99.028784c-63.980509-31.991599-134.523329-49.062746-206.657663-49.062746s-142.677154 17.071147-206.657663 49.062746L199.969 124.952733c-39.172234-36.811846-63.854156-23.571625-54.84543 29.424206l28.391872 167.047225C84.533095 414.350349 26.883697 547.690795 26.883697 710.460824c0 68.053389 10.076009 135.926658 28.303155 200.751316 266.535721 49.629992 316.173778-129.617054 456.813148-129.617055s190.277427 179.244358 456.813148 129.617055c18.229835-64.824657 28.303156-132.697926 28.303155-200.751316 0-162.770029-57.649399-296.110475-146.629057-389.03666zM273.377621 705.624447c-57.364432-24.05822-90.315778-81.790958-85.597689-140.593667l245.878288 103.123171c-38.642625 44.575857-102.916167 61.528716-160.280599 37.470496z m477.244758 0c-57.364432 24.05822-121.637973 7.105361-160.280599-37.470496l245.878288-103.123171c4.718089 58.802709-28.233258 116.532759-85.597689 140.593667z" fill="#DE021B" p-id="1470"></path><path d="M880.67226 946.781959h-0.026883c-114.524547-0.008065-185.142641-47.12712-241.883371-84.98743-44.640378-29.787136-79.903723-53.315747-126.759318-53.315747s-82.110874 23.525923-126.745875 53.313058c-56.738041 37.862998-127.350759 84.990118-241.899501 84.990119-29.198383 0-60.517889-3.075495-93.087488-9.140457a26.883697 26.883697 0 0 1-20.95853-19.151946C9.86094 849.333935 0 779.342232 0 710.460824c0-154.046269 51.307535-294.661444 144.782148-397.639443l-26.163214-153.941423c-5.048758-29.709173-1.454408-52.060278 10.686269-66.437679 8.288244-9.817926 20.052549-15.224237 33.126091-15.224238 17.253956 0 36.077921 9.468438 55.950349 28.141854l91.99601 86.45528c63.394445-28.690281 132.700614-43.782788 201.625035-43.782789s138.230591 15.092507 201.625036 43.782789l91.998698-86.45528c19.86974-18.673416 38.696393-28.144542 55.950349-28.144542 13.070853 0 24.835159 5.406311 33.123402 15.221549 12.140677 14.377401 15.735028 36.731195 10.68627 66.437679l-26.163214 153.941423c93.474613 102.980688 144.782148 243.593174 144.782148 397.639444 0 68.881407-9.86094 138.873111-29.308606 208.028732a26.883697 26.883697 0 0 1-20.95853 19.151945c-32.574975 6.070339-63.889105 9.145834-93.065981 9.145834zM512 754.711389c63.149803 0 108.542925 30.289861 156.602909 62.356734 55.953038 37.333389 113.806752 75.938378 212.045156 75.946443h0.024195c20.971972 0 43.328454-1.817338 66.658126-5.411689 15.20273-59.074235 22.902221-118.578609 22.902221-177.142053 0-145.163896-49.422988-276.721953-139.163455-370.443896a26.889073 26.889073 0 0 1-7.086542-23.095783l28.391871-167.049914c1.064594-6.274655 1.443655-11.08146 1.481292-14.681186-2.976025 2.021654-6.774692 4.992302-11.412129 9.352838l-105.376025 99.028784a26.889073 26.889073 0 0 1-30.435033 4.454629c-60.474875-30.24147-127.77821-46.223828-194.632586-46.223828s-134.157711 15.985046-194.632586 46.223828a26.883697 26.883697 0 0 1-30.435033-4.454629L181.559044 144.542883c-4.640126-4.360536-8.436104-7.331184-11.414817-9.352838 0.037637 3.597039 0.414009 8.403844 1.481292 14.681186l28.389183 167.049914a26.87832 26.87832 0 0 1-7.086542 23.095783C103.190381 433.738871 53.767393 565.296928 53.767393 710.460824c0 58.560756 7.699491 118.067818 22.902221 177.142053 23.33236 3.59435 45.699596 5.411688 66.685009 5.411689 98.254534 0 156.108249-38.607677 212.053222-75.946443 48.054608-32.066873 93.439664-62.356734 156.592155-62.356734z m184.446353-11.253516a167.189709 167.189709 0 0 1-126.415206-57.695101 26.883697 26.883697 0 0 1 9.917396-42.398277l245.8756-103.123172a26.875631 26.875631 0 0 1 37.193594 22.641449 166.840221 166.840221 0 0 1-101.996745 167.53382c-20.633237 8.651174-42.360641 13.041281-64.574639 13.041281z m-54.614229-67.746915a113.540604 113.540604 0 0 0 54.614229 13.979522 112.605051 112.605051 0 0 0 43.7801-8.858178 113.199181 113.199181 0 0 0 65.343513-73.793058l-163.737842 68.671714z m-314.278477 67.746915c-22.213998 0-43.941402-4.387419-64.574639-13.043969a166.840221 166.840221 0 0 1-101.996745-167.53382 26.883697 26.883697 0 0 1 37.193594-22.641449l245.8756 103.123171a26.87832 26.87832 0 0 1 9.917396 42.398278 167.181643 167.181643 0 0 1-126.415206 57.697789z m-109.120925-136.418629a113.199181 113.199181 0 0 0 65.343513 73.793058 112.605051 112.605051 0 0 0 43.7801 8.858178c19.324001 0 38.067314-4.906275 54.614229-13.979522l-163.737842-68.671714z" p-id="1471"></path><path d="M147.177485 378.084243a26.770785 26.770785 0 0 1-16.955547-6.03539c-11.514287-9.374345-13.250974-26.308385-3.87663-37.819985 27.297705-33.534723 58.558068-63.429394 92.910056-88.850616 11.936361-8.833983 28.770932-6.317669 37.602226 5.616004 8.833983 11.933673 6.317669 28.770932-5.616004 37.602226-30.741507 22.751672-58.732812 49.522457-83.196976 79.575742a26.846059 26.846059 0 0 1-20.867125 9.912019zM876.825203 378.084243a26.824552 26.824552 0 0 1-20.864436-9.914708c-24.464164-30.050596-52.455469-56.824069-83.196976-79.575741-11.933673-8.831294-14.449987-25.665865-5.616004-37.602227 8.833983-11.933673 25.671242-14.449987 37.602226-5.616004 34.351987 25.421223 65.61235 55.315894 92.910055 88.850617 9.371657 11.514287 7.637658 28.448328-3.876629 37.819984a26.770785 26.770785 0 0 1-16.958236 6.038079z" p-id="1472"></path></svg>